<svg width="941" height="219" viewBox="0 0 941 219" fill="none" xmlns="http://www.w3.org/2000/svg">
<path d="M131.648 87.4727H87.8906V131.229H131.648V87.4727Z" fill="white"/>
<path d="M0 0V218.739H218.745V0H0ZM175.029 175.025H43.7574V43.7562H175.029V175.025Z" fill="white"/>
<path d="M295.609 30.9629H336.976V187.487H295.609V30.9629Z" fill="white"/>
<path d="M409.634 68.9716H360.465V30.9629H500.212V68.9716H451.042V187.487H409.676V68.9716H409.634Z" fill="white"/>
<path d="M520.3 30.9677H558.309V67.7598L595.187 67.8857C608.737 67.8857 619.394 71.955 627.155 80.0518C634.916 88.1905 638.776 100.147 638.776 115.921V187.45H600.766V121.501C600.766 114.788 598.962 109.586 595.396 105.852C591.83 102.119 586.88 100.273 580.629 100.273L558.268 100.566V187.45H520.258V30.9258L520.3 30.9677Z" fill="white"/>
<path d="M710.355 190.838C696.804 190.838 686.148 186.769 678.387 178.672C670.625 170.533 666.766 158.577 666.766 142.803V71.2744H704.775V137.223C704.775 143.936 706.579 149.138 710.145 152.871C713.711 156.605 718.662 158.451 724.913 158.451C731.164 158.451 736.45 156.144 740.771 151.529C745.093 146.914 747.274 140.663 747.274 132.734V71.2324H785.284V187.482H747.274V171.834H745.051C742.953 175.568 740.268 178.756 736.996 181.441C734.185 183.832 730.577 185.972 726.256 187.943C721.934 189.873 716.648 190.838 710.397 190.838H710.355Z" fill="white"/>
<path d="M889.199 190.843C883.242 190.843 878.124 189.878 873.886 187.948C869.649 186.018 866.041 183.837 863.062 181.446C859.622 178.761 856.811 175.572 854.546 171.838H852.322V187.487H814.312V30.9629H852.322V68.0486L889.199 67.8389C896.205 67.8389 902.792 69.2653 909.001 72.0761C915.168 74.8869 920.622 78.9562 925.321 84.2422C930.02 89.5282 933.754 95.9888 936.523 103.582C939.292 111.176 940.676 119.776 940.676 129.299C940.676 138.822 939.292 147.422 936.523 155.016C933.754 162.609 930.02 169.07 925.321 174.356C920.622 179.642 915.168 183.711 909.001 186.522C902.792 189.333 896.205 190.759 889.199 190.759V190.843ZM876.907 158.414C884.207 158.414 890.122 155.939 894.695 151.03C899.226 146.122 901.533 138.864 901.533 129.341C901.533 119.818 899.268 112.56 894.695 107.652C890.164 102.743 884.207 100.268 876.907 100.268H852.322V129.341C852.322 138.864 854.588 146.122 859.161 151.03C863.692 155.939 869.649 158.414 876.949 158.414H876.907Z" fill="white"/>
</svg>
